<svg id="features-ico-01" xmlns="http://www.w3.org/2000/svg" xmlns:xlink="http://www.w3.org/1999/xlink" width="111.044" height="93.341" viewBox="0 0 111.044 93.341">
  <defs>
    <clipPath id="clip-path">
      <rect id="長方形_55" data-name="長方形 55" width="111.044" height="93.341" fill="#fff"/>
    </clipPath>
  </defs>
  <g id="グループ_13" data-name="グループ 13" clip-path="url(#clip-path)">
    <path id="パス_13" data-name="パス 13" d="M133.1,133.221a3.579,3.579,0,0,0,6.075-1.162c.423-1.006-1.22-1.445-1.637-.452a1.868,1.868,0,0,1-3.554-.226c-.2-.637-1.222-.9-1.552-.2a2.638,2.638,0,0,1-5.1-.713c-.18-1.075-1.817-.619-1.637.452a4.319,4.319,0,0,0,7.4,2.3" transform="translate(-77.034 -79.588)" fill="#fff"/>
    <path id="パス_14" data-name="パス 14" d="M66.542,208.91a.863.863,0,0,0-.849.849v.466a.849.849,0,1,0,1.7,0v-.466a.858.858,0,0,0-.849-.849" transform="translate(-40.265 -128.045)" fill="#fff"/>
    <path id="パス_15" data-name="パス 15" d="M76.578,214.833a.85.85,0,0,0,0,1.7.85.85,0,0,0,0-1.7" transform="translate(-46.433 -131.675)" fill="#fff"/>
    <path id="パス_16" data-name="パス 16" d="M88.005,217.892a.85.85,0,0,0,0,1.7.85.85,0,0,0,0-1.7" transform="translate(-53.438 -133.55)" fill="#fff"/>
    <path id="パス_17" data-name="パス 17" d="M102.692,220.918a.849.849,0,0,0,0-1.7h-.233a.849.849,0,0,0,0,1.7Z" transform="translate(-62.278 -134.364)" fill="#fff"/>
    <path id="パス_18" data-name="パス 18" d="M185.061,222.652h.466a.849.849,0,0,0,0-1.7h-.466a.849.849,0,0,0,0,1.7" transform="translate(-112.907 -135.427)" fill="#fff"/>
    <path id="パス_19" data-name="パス 19" d="M197.806,220.918a.85.85,0,0,0,0-1.7.85.85,0,0,0,0,1.7" transform="translate(-120.737 -134.364)" fill="#fff"/>
    <path id="パス_20" data-name="パス 20" d="M219.055,212.741a.85.85,0,0,0,0-1.7.85.85,0,0,0,0,1.7" transform="translate(-133.76 -129.352)" fill="#fff"/>
    <path id="パス_21" data-name="パス 21" d="M208.334,216.531a.85.85,0,0,0,0-1.7.85.85,0,0,0,0,1.7" transform="translate(-127.19 -131.675)" fill="#fff"/>
    <path id="パス_22" data-name="パス 22" d="M188.276,21.244a1.018,1.018,0,0,0,1.326-.563l3.476-8.6a1.019,1.019,0,1,0-1.889-.763l-3.476,8.6a1.019,1.019,0,0,0,.563,1.327" transform="translate(-115.007 -6.545)" fill="#fff"/>
    <path id="パス_23" data-name="パス 23" d="M239.474,48.514l-6.895,6.208a1.019,1.019,0,1,0,1.363,1.514l6.9-6.208a1.019,1.019,0,0,0-1.364-1.514" transform="translate(-142.346 -29.574)" fill="#fff"/>
    <path id="パス_24" data-name="パス 24" d="M269.487,106.185a1.018,1.018,0,0,0-1.26-.7l-8.918,2.557a1.019,1.019,0,1,0,.562,1.959l8.918-2.557a1.019,1.019,0,0,0,.7-1.26" transform="translate(-158.483 -64.63)" fill="#fff"/>
    <path id="パス_25" data-name="パス 25" d="M10.306,116.679,1.232,114.75a1.019,1.019,0,1,0-.424,1.993l9.074,1.928a1,1,0,0,0,.213.023,1.019,1.019,0,0,0,.211-2.016" transform="translate(0 -70.319)" fill="#fff"/>
    <path id="パス_26" data-name="パス 26" d="M36.053,63.329a1.019,1.019,0,0,0,.628-1.822L29.37,55.8A1.019,1.019,0,0,0,28.116,57.4l7.311,5.711a1.012,1.012,0,0,0,.627.216" transform="translate(-16.993 -34.066)" fill="#fff"/>
    <path id="パス_27" data-name="パス 27" d="M82.739,24.373a1.019,1.019,0,1,0,1.831-.894L80.5,15.14a1.019,1.019,0,0,0-1.832.894Z" transform="translate(-48.157 -8.929)" fill="#fff"/>
    <path id="パス_28" data-name="パス 28" d="M143.267,11.315a1.019,1.019,0,0,0,1.019-1.019V1.019a1.019,1.019,0,0,0-2.038,0V10.3a1.019,1.019,0,0,0,1.019,1.019" transform="translate(-87.187)" fill="#fff"/>
    <path id="パス_29" data-name="パス 29" d="M119.674,120.6c-7.914-7.139-15.882-14.317-22.492-22.719A144.349,144.349,0,0,1,81.641,73.6a.707.707,0,0,0-.032-.165,1.156,1.156,0,0,1-.005-.153,8.724,8.724,0,0,0-.038-1.109q-.055-1.814-.078-3.63c-.029-2.083-.061-4.18.041-6.264,2.467,1.17,5.168,2.246,7.289,3.944a29.277,29.277,0,0,1-5.985,2.1c-1.072.2-.618,1.841.451,1.637a40.264,40.264,0,0,0,7.327-2.662.861.861,0,0,0,.375-1.419c-2.66-2.658-6.511-3.966-9.8-5.658a.861.861,0,0,0-1.277.733c-.212,2.649-.159,5.324-.118,7.979a38.886,38.886,0,0,0,.1,4.643c-12.16,16.96-23.34,35.065-39.133,48.981a.714.714,0,0,0-.177.921.819.819,0,0,0,.349.412,31.4,31.4,0,0,0,21.251,4.184.83.83,0,0,0,.3.125c11.511,2.434,24.265,2.835,35.741.03q.737.167,1.5.27a.839.839,0,0,0,.337.05.812.812,0,0,0,.3-.021c6.89-.4,13.231-3.2,19.142-6.6a.775.775,0,0,0,.4-.529.721.721,0,0,0-.225-.8m-76.882,2.424C57.953,109.387,68.9,91.908,80.663,75.42A147.819,147.819,0,0,0,95.65,98.659c6.454,8.277,14.213,15.369,21.982,22.381-5.442,3.044-11.265,5.517-17.573,5.82-5.963-.676-10.792-5.042-13.616-10.129-3.086-5.559-3.763-12.1-4.8-18.271a.725.725,0,0,0-.064-.315.693.693,0,0,0-.847-.485.79.79,0,0,0-.76.594c-1.663,5.652-2.883,11.527-5.683,16.768-2.1,3.934-4.755,9.482-9.4,10.75a29.75,29.75,0,0,1-22.1-2.749m23.287,4.148c4.451-1.628,6.825-6.383,9.1-10.262,2.635-4.5,4.015-9.535,5.4-14.534.938,5.748,2.019,11.569,5.192,16.529a21.725,21.725,0,0,0,9.308,8.287,80.739,80.739,0,0,1-28.991-.02" transform="translate(-24.817 -36.85)" fill="#fff"/>
  </g>
</svg>
