<svg xmlns="http://www.w3.org/2000/svg" xmlns:xlink="http://www.w3.org/1999/xlink" width="135.897" height="101.358" viewBox="0 0 135.897 101.358">
  <defs>
    <clipPath id="clip-path">
      <rect id="長方形_56" data-name="長方形 56" width="135.897" height="101.358" fill="#fff"/>
    </clipPath>
  </defs>
  <g id="features-ico-02" transform="translate(-127.126 -7.827)">
    <g id="グループ_18" data-name="グループ 18" transform="translate(127.126 7.827)">
      <g id="グループ_17" data-name="グループ 17" clip-path="url(#clip-path)">
        <path id="パス_30" data-name="パス 30" d="M61.6,79.312a109.441,109.441,0,0,1-8.848-26.571c-.867-4.483-1.4-9.055-2.456-13.5-.948-3.985-2.164-7.908-3.319-11.836a113.425,113.425,0,0,1-3.248-12.264.741.741,0,0,0-.087-.24l-.187.024a.7.7,0,0,1-.8-.425.848.848,0,0,0-.61.421C32.2,33.36,24.3,52.76,14.452,71.194a.9.9,0,0,0-.11.527.758.758,0,0,0,.659.824c15.354,2.9,30.966,4.729,46.014,9.068a.879.879,0,0,0,1.121-.731.95.95,0,0,1-.535-1.57m-18.174-2.3a.907.907,0,0,1-.795-.456l-.109-.232a.917.917,0,0,1,.014-.842c-5.314-.993-10.653-1.867-15.986-2.762-.111.325-.224.649-.34.973-.4,1.107-2.179.627-1.775-.489.1-.264.187-.529.278-.793q-4.043-.685-8.074-1.424c9.174-17.342,16.7-35.493,25.806-52.869,1.5,6.929,4.064,13.659,5.8,20.519,2.244,8.848,2.947,17.972,5.7,26.722a109.441,109.441,0,0,0,5.6,13.941c-4.871-1.332-9.8-2.424-14.749-3.386a1.3,1.3,0,0,1-1.38,1.1" transform="translate(-8.974 -9.079)" fill="#fff"/>
        <path id="パス_31" data-name="パス 31" d="M140.685,172.887a.914.914,0,0,0-.4.245.95.95,0,0,0,.535,1.57.919.919,0,0,0,.352-.04c8.9-2.775,17.917-5.264,26.7-8.408l-.248-1.862c-8.859,3.186-17.959,5.7-26.942,8.5" transform="translate(-87.66 -102.898)" fill="#fff"/>
        <path id="パス_32" data-name="パス 32" d="M90.724,5.85l.187-.024c10.709-1.423,21.526-1.674,32.306-2.15,5.324-.235,10.648-.514,15.955-1.015q1.935-.183,3.865-.409a13.729,13.729,0,0,1,3.5-.406c1.464.255,1.705,2.2,2.113,3.365q.693,1.982,1.356,3.974c1.035,3.1,2.028,6.211,3.008,9.328l1.771-.482q-1-3.2-2.036-6.393c-.842-2.59-1.706-5.174-2.616-7.742-.575-1.624-1.034-3.53-3-3.844a12.729,12.729,0,0,0-3.459.282q-2.248.275-4.5.486c-2.851.269-5.709.474-8.568.642-13.294.786-26.661.774-39.879,2.547a1.038,1.038,0,0,0-.8,1.416.7.7,0,0,0,.8.425" transform="translate(-56.242 0)" fill="#fff"/>
        <path id="パス_33" data-name="パス 33" d="M264.133,125.431a.81.81,0,0,1,.561-.833,1.044,1.044,0,0,1,.115-.054c3.153-1.115,7.593-1.408,7.48-5.9a.7.7,0,0,1,.4-.838l0,0c.019-.01.034-.021.054-.03a7.566,7.566,0,0,0,2.879-2.386,1.82,1.82,0,0,0,.142-.282l.206-3.446a3.208,3.208,0,0,0-1.973.772c-.182.855-1.568,1.1-1.777.09A21.205,21.205,0,0,0,271,108.664a.847.847,0,0,1-.426-.053,13.125,13.125,0,0,1-3.478-1.882c-.021-.016-.04-.034-.061-.049a2.42,2.42,0,0,1-.146.435c-.778,1.73-3.074,1.155-4.53.957-2.327-.317-4.678-.639-6.438-2.348a9.2,9.2,0,0,1-2.39-4.383c-2.944,2.5-5.681,6.848-5.6,10.555a.936.936,0,0,1-.043.3c0,.027.011.051.013.078a11.937,11.937,0,0,0,1.046,3.626,3.78,3.78,0,0,1,.56.105,4.569,4.569,0,0,1,2.794,2.8c.421.961.624,2.01,1.086,2.951.589,1.2,1.6,1.682,2.476,2.6.028.03.051.061.077.091a11.321,11.321,0,0,0,1.951.527c1.166.205.669,1.978-.489,1.775-.091-.016-.183-.039-.275-.057a2.722,2.722,0,0,1-.042,1.32l7.049-2.125c0-.153,0-.306,0-.46m-13.739-14.979c-.559-.189-.318-1.078.245-.887,1.914.648,3.291-1.086,4.586-2.226.443-.39,1.1.258.65.65-1.568,1.381-3.186,3.24-5.482,2.463m4.964,3.028a.923.923,0,0,1-.642,1.132,2,2,0,0,1-1.928-.55,1.55,1.55,0,0,1-.033-2.047,1.4,1.4,0,0,1,1.99-.105,1.711,1.711,0,0,1,.521,1.365,1.065,1.065,0,0,1,.092.2m5.022,7.328a1.306,1.306,0,0,0-1.757-.151c-.9.764-2.2-.532-1.3-1.3a3.178,3.178,0,0,1,4.36.151c.821.854-.479,2.156-1.3,1.3m2.544-6.7a1.231,1.231,0,0,1-1.129-.949,1.878,1.878,0,0,1,.975-1.9,1.194,1.194,0,0,1,1.358.089,1.921,1.921,0,0,1,.592,1.005,1.5,1.5,0,0,1-1.059,1.878,1.092,1.092,0,0,1-.736-.125" transform="translate(-155.163 -63.434)" fill="none"/>
        <path id="パス_34" data-name="パス 34" d="M312.689,151.566l3.192-.962.263-4.392a6.976,6.976,0,0,1-1.467,1.022,7.007,7.007,0,0,1-1.987,4.332" transform="translate(-195.723 -91.519)" fill="#fff"/>
        <path id="パス_35" data-name="パス 35" d="M271.367,163.646a11.318,11.318,0,0,1-1.951-.527,4.8,4.8,0,0,1,1.187,2.245c.092.018.183.041.275.057,1.159.2,1.656-1.57.489-1.775" transform="translate(-168.637 -102.102)" fill="#fff"/>
        <path id="パス_36" data-name="パス 36" d="M244.828,129.949a.931.931,0,0,1-1.791-.245.91.91,0,0,0-.037.323,15.193,15.193,0,0,0,1.065,4.194,2.144,2.144,0,0,1,1.821-.569,11.944,11.944,0,0,1-1.046-3.626c0-.028-.009-.052-.013-.078" transform="translate(-152.102 -81.186)" fill="#fff"/>
        <path id="パス_37" data-name="パス 37" d="M282.175,98.792c-.025-.007-.046-.018-.073-.024-.874-.188-1.564-.633-2.484-.8a3.778,3.778,0,0,1-2.587-1.084,15.527,15.527,0,0,1-2.225-3.854c-.427-1.091-2.208-.616-1.775.489a17.489,17.489,0,0,0,2.724,4.7,3.832,3.832,0,0,0,2.236,1.3,17.756,17.756,0,0,1,2.244.435c.272.11.488.237.719.349.241-.595.313-1.417,1.221-1.515" transform="translate(-170.858 -57.845)" fill="#fff"/>
        <path id="パス_38" data-name="パス 38" d="M272.6,148.173c-.9.769.4,2.066,1.3,1.3a1.306,1.306,0,0,1,1.757.152c.823.855,2.123-.447,1.3-1.3a3.177,3.177,0,0,0-4.359-.152" transform="translate(-170.438 -92.251)" fill="#fff"/>
        <path id="パス_39" data-name="パス 39" d="M315.5,126.562a3.21,3.21,0,0,1,1.973-.772c.331.054.56.293.543.854a8.779,8.779,0,0,1-.441,1.38,8.816,8.816,0,0,1-.308,1.21,1.894,1.894,0,0,1-.142.282,7.556,7.556,0,0,1-2.879,2.386c-.02.009-.035.021-.054.03a.954.954,0,0,1,1.439.765,5.744,5.744,0,0,1-.013.584,6.978,6.978,0,0,0,1.467-1.022,9.027,9.027,0,0,0,2.774-5.513,2.447,2.447,0,0,0-1.676-2.674,2.737,2.737,0,0,0-.6-.133,4.058,4.058,0,0,0-2.486.652c.157.529.293,1.055.4,1.572a.965.965,0,0,1,0,.4" transform="translate(-196.662 -77.567)" fill="#fff"/>
        <path id="パス_40" data-name="パス 40" d="M313.473,145.345a.7.7,0,0,0-.4.838c0-.025,0-.05,0-.076a.8.8,0,0,1,.4-.762" transform="translate(-195.95 -90.977)" fill="#fff"/>
        <path id="パス_41" data-name="パス 41" d="M302.248,145.9a.954.954,0,0,0-1.439-.765l0,0a.8.8,0,0,0-.4.762c0,.026,0,.05,0,.076.113,4.5-4.327,4.789-7.48,5.9a1.057,1.057,0,0,0-.115.054.935.935,0,0,1,1.28.833c.006.225,0,.448,0,.671,1.692-.492,3.46-.7,4.987-1.665a6.524,6.524,0,0,0,1.168-.957,7.007,7.007,0,0,0,1.987-4.332,5.734,5.734,0,0,0,.013-.584" transform="translate(-183.282 -90.767)" fill="#fff"/>
        <path id="パス_42" data-name="パス 42" d="M291.332,163.42a.811.811,0,0,0-.561.834c0,.153,0,.306,0,.459a20.635,20.635,0,0,1-.31,3.822.961.961,0,0,0,0,.366,1,1,0,0,1,.187-.29.924.924,0,0,1,1.3,0l.244.285c.019.021.032.045.049.067a23.456,23.456,0,0,0,.364-4.038c0-.223.006-.447,0-.671a.935.935,0,0,0-1.28-.834" transform="translate(-181.801 -102.256)" fill="#fff"/>
        <path id="パス_43" data-name="パス 43" d="M303.853,108.838a21.2,21.2,0,0,1,1.225,3.854c.209,1.015,1.6.765,1.777-.09a.959.959,0,0,0,0-.4c-.107-.517-.243-1.043-.4-1.571a30.285,30.285,0,0,0-4.311-8.61c-.685-.953-2.282-.035-1.589.929a30.843,30.843,0,0,1,2.17,3.507,9.26,9.26,0,0,0,1.193.554.966.966,0,0,1-.063,1.827" transform="translate(-188.02 -63.607)" fill="#fff"/>
        <path id="パス_44" data-name="パス 44" d="M244.878,107.9a.937.937,0,0,0,.043-.3c-.085-3.707,2.651-8.059,5.6-10.555a13.927,13.927,0,0,1-.282-1.373,1.023,1.023,0,0,1,1.184-1.138.772.772,0,0,0-.761.1c-3.856,2.622-7.687,8.132-7.576,12.967,0,.019.005.036.007.055a.931.931,0,0,0,1.791.245" transform="translate(-152.152 -59.134)" fill="#fff"/>
        <path id="パス_45" data-name="パス 45" d="M258.885,117.17c-1.3,1.141-2.672,2.874-4.586,2.226-.562-.191-.8.7-.245.887,2.3.777,3.913-1.082,5.482-2.463.446-.392-.207-1.041-.65-.651" transform="translate(-158.823 -73.266)" fill="#fff"/>
        <path id="パス_46" data-name="パス 46" d="M262.188,95.745a13.818,13.818,0,0,0,.282,1.373,9.2,9.2,0,0,0,2.39,4.383c1.76,1.708,4.11,2.031,6.438,2.348,1.455.2,3.751.773,4.53-.957a2.419,2.419,0,0,0,.146-.435c.021.016.04.034.061.049a13.123,13.123,0,0,0,3.478,1.882.847.847,0,0,0,.426.053.966.966,0,0,0,.063-1.827,9.261,9.261,0,0,1-1.193-.554,22.046,22.046,0,0,1-2.134-1.4,1.894,1.894,0,0,0-1.106-.517c-.053,0-.1.009-.146.014-.909.1-.981.92-1.221,1.515a.866.866,0,0,1-.539.581c-.925.269-2.52-.25-3.471-.4a8.4,8.4,0,0,1-3.159-.98c-1.946-1.2-2.746-3.462-3.07-5.614a.714.714,0,0,0-.59-.648,1.022,1.022,0,0,0-1.184,1.138" transform="translate(-164.105 -59.209)" fill="#fff"/>
        <path id="パス_47" data-name="パス 47" d="M231.476,101.113c-1.879-4.167-4.388-8.342-3.34-13.071A18.2,18.2,0,0,1,230.89,82c1.069-1.613,2.962-5.017,5.151-5.2,1.172-.1,1.182-1.937,0-1.84-2.337.191-3.653,1.967-5,3.705a25.223,25.223,0,0,0-4.331,7.613c-1.733,5.409.531,10,2.735,14.8a.931.931,0,0,1,1.818.236q.014.435.025.873a.951.951,0,0,0,.186-1.072" transform="translate(-141.523 -46.918)" fill="#fff"/>
        <path id="パス_48" data-name="パス 48" d="M259.4,64.735c-.889.787.417,2.084,1.3,1.3,2.585-2.288,6.117-2.693,9.426-2.2.532.079,1.078.18,1.627.3,2.8.608,5.716,1.765,7.6,3.861,1.165,1.3,1.9,2.935,2.925,4.336.879,1.2,1.9,2.28,2.849,3.415a11.514,11.514,0,0,1,2.659,4.769,20.043,20.043,0,0,1,.069,6.189.968.968,0,0,0,.007.229l.091-.29a.955.955,0,0,1,1.756-.111c.352-4.185.094-7.8-2.577-11.221-1.286-1.648-2.785-3.118-3.93-4.874-1.161-1.781-2.128-3.582-3.828-4.922a18.508,18.508,0,0,0-8.906-3.593c-4.019-.519-8.162.242-11.064,2.81" transform="translate(-162.184 -38.665)" fill="#fff"/>
        <path id="パス_49" data-name="パス 49" d="M262.267,128.988a1.4,1.4,0,0,0-1.99.105,1.549,1.549,0,0,0,.033,2.047,2,2,0,0,0,1.928.55.924.924,0,0,0,.643-1.132,1.112,1.112,0,0,0-.092-.2,1.714,1.714,0,0,0-.521-1.365" transform="translate(-162.685 -80.51)" fill="#fff"/>
        <path id="パス_50" data-name="パス 50" d="M287.931,128.657a1.923,1.923,0,0,0-.592-1.005,1.194,1.194,0,0,0-1.358-.089,1.878,1.878,0,0,0-.974,1.9,1.229,1.229,0,0,0,1.129.949,1.09,1.09,0,0,0,.737.125,1.5,1.5,0,0,0,1.059-1.878" transform="translate(-178.375 -79.74)" fill="#fff"/>
        <path id="パス_51" data-name="パス 51" d="M291.867,176.941a.924.924,0,0,0-1.3,0,1,1,0,0,0-.187.29.958.958,0,0,0,.187,1.011l.244.285a.916.916,0,0,0,1.35-1.235c-.017-.022-.03-.045-.049-.067l-.243-.285" transform="translate(-181.714 -110.586)" fill="#fff"/>
        <path id="パス_52" data-name="パス 52" d="M320.885,222.989a.84.84,0,0,1,.884-.228.766.766,0,0,1-.041-.6,2.263,2.263,0,0,1-.923.671.947.947,0,0,0-.542.559,1.189,1.189,0,0,0,.623-.4" transform="translate(-200.463 -139.056)" fill="#fff"/>
        <path id="パス_53" data-name="パス 53" d="M325.821,226.195a4.242,4.242,0,0,0,.379-.3c-.094-.1-.19-.193-.29-.286a.981.981,0,0,1-.089.588" transform="translate(-203.943 -141.215)" fill="#fff"/>
        <path id="パス_54" data-name="パス 54" d="M301.619,179l.018-.018a22.271,22.271,0,0,0-3.521-2.295.937.937,0,0,0-1.161,1.415c.134-.155.264-.316.387-.486.687-.953,2.283-.034,1.589.929-.126.175-.259.344-.395.509a19.8,19.8,0,0,1,5.958,5.642c1.124,1.646,3.887,6.23,2.756,8.535a.913.913,0,0,1,1.292-.038c.16.147.328.3.5.461.792-2.234-.408-5.232-1.542-7.491a21.454,21.454,0,0,0-4.8-6.281c-.033.031-.064.063-.1.093-.661.59-1.639-.383-.976-.976" transform="translate(-185.734 -110.523)" fill="#fff"/>
        <path id="パス_55" data-name="パス 55" d="M231.358,159.351c-1.006.072-1.533-.239-1.754-.77-.693-1.667,1.666-5.531,2.023-6.752a22.918,22.918,0,0,0,.623-7.026q-.011-.437-.025-.873a.931.931,0,0,0-1.818-.236,1,1,0,0,0-.022.236,27.057,27.057,0,0,1-.3,6.486c-.423,1.98-1.687,3.5-2.246,5.4a4.97,4.97,0,0,0,.153,3.253,3.257,3.257,0,0,0,3.371,2.123.9.9,0,0,0,.769-.505,5.4,5.4,0,0,1-.349-1.267.868.868,0,0,0-.42-.068" transform="translate(-142.483 -89.536)" fill="#fff"/>
        <path id="パス_56" data-name="パス 56" d="M322.276,136.924c-.709-3.11.346-6.292,1.28-9.235a.834.834,0,0,0-.019-.6.954.954,0,0,0-1.755.111l-.091.29c-1.2,3.817-2.339,8.082-.5,11.891.765,1.588,2.548,3.024,2.838,4.8.343,2.1-1.473,3.088-3.3,3.617a7.557,7.557,0,0,0-1.041-4.654c-.448-.906-1.622-.347-1.715.464a3.841,3.841,0,0,1-3.806,3.359,5.571,5.571,0,0,1-1.014,1.435.875.875,0,0,0,.724.406,5.6,5.6,0,0,0,5.046-2.641,2.3,2.3,0,0,1-.655,2.325c-.728.673.057,1.69.9,1.538,3.561-.645,8.214-2.838,6.314-7.277-.9-2.1-2.673-3.524-3.2-5.831" transform="translate(-196.011 -79.219)" fill="#fff"/>
        <path id="パス_57" data-name="パス 57" d="M240.087,177.038a4.036,4.036,0,0,1,.834-1.551c.578-.67-.394-1.65-.976-.976a5.654,5.654,0,0,0-1.335,2.973,5.416,5.416,0,0,0,.779,3.574l.842-1.4a4.117,4.117,0,0,1-.145-2.623" transform="translate(-149.326 -109.091)" fill="#fff"/>
        <path id="パス_58" data-name="パス 58" d="M311.7,173.639a5.689,5.689,0,0,0,.392-3.982.691.691,0,0,0-1.331.367,4.253,4.253,0,0,1-1.311,4.323l-.018.017c-.664.593.315,1.566.976.976.034-.03.065-.063.1-.094.061-.057.122-.113.18-.172a5.574,5.574,0,0,0,1.015-1.435" transform="translate(-193.543 -105.888)" fill="#fff"/>
        <path id="パス_59" data-name="パス 59" d="M242.247,172.238a10.584,10.584,0,0,0,.414-2.107c.785-4.75,1.782-9.19,2.929-13.886a.808.808,0,0,1,.5-.594.846.846,0,0,1,.76-.431c2.37-.029-.293-2.506-.978-3.064a5.92,5.92,0,0,1-1.685-2.112c-.4-.834-.6-1.736-.928-2.594-.283-.741-2.314-3.855-2.763-1.164-.212,1.271,1.291,3.439,1.863,4.5a37.435,37.435,0,0,0,2.239,3.7.892.892,0,0,1,0,.929c-2.108,2.941-3.931,6.07-5.8,9.163a18.487,18.487,0,0,0-2.417,6.3c-.315,1.536-1.656,6.186,1.537,5.323a8.567,8.567,0,0,0,4.333-3.949" transform="translate(-147.613 -90.89)" fill="none"/>
        <path id="パス_60" data-name="パス 60" d="M242.982,154.94a3.952,3.952,0,0,1,.539.093,1.947,1.947,0,0,0,.475-.556l.141-.576.077-.005a1.806,1.806,0,0,0,.014-.692c-.213-1.16,1.561-1.653,1.775-.489.017.093.03.186.041.278a2,2,0,0,0,.337-.647,2.722,2.722,0,0,0,.043-1.32,4.8,4.8,0,0,0-1.187-2.245c-.027-.03-.05-.061-.077-.091-.872-.923-1.888-1.406-2.476-2.6-.463-.942-.665-1.99-1.087-2.952a4.566,4.566,0,0,0-2.793-2.8,3.779,3.779,0,0,0-.56-.105,2.144,2.144,0,0,0-1.821.569,4.055,4.055,0,0,0-.564,3.976,29.8,29.8,0,0,0,3.672,7.032c-.749,1.066-1.463,2.154-2.158,3.255-.682,1.082-1.347,2.176-2.009,3.272l-.842,1.4-.095.157a19.748,19.748,0,0,0-2.6,5.688c-.64,2.555-2.5,8.181,1.2,9.291a3.711,3.711,0,0,0,1.99.029c.078-.44.153-.882.234-1.322.206-1.116,1.838-.706,1.787.35a14.076,14.076,0,0,0,2.132-1.917,7.539,7.539,0,0,0,2.113-4.513c.333-2.014.526-4.052,1.011-6.037l1.121-4.588a2.293,2.293,0,0,0-.431-.088c-1.17-.112-1.178-1.953,0-1.84m-8.223,18.12c-3.193.864-1.852-3.787-1.537-5.323a18.486,18.486,0,0,1,2.417-6.3c1.871-3.094,3.694-6.223,5.8-9.163a.892.892,0,0,0,0-.929,37.407,37.407,0,0,1-2.239-3.7c-.572-1.058-2.075-3.226-1.863-4.5.45-2.691,2.48.423,2.763,1.164.328.859.531,1.76.928,2.594a5.919,5.919,0,0,0,1.685,2.112c.685.559,3.347,3.035.978,3.064a.846.846,0,0,0-.76.431.807.807,0,0,0-.5.594c-1.147,4.7-2.144,9.136-2.929,13.886a10.582,10.582,0,0,1-.414,2.107,8.565,8.565,0,0,1-4.333,3.949" transform="translate(-144.459 -87.764)" fill="#fff"/>
        <path id="パス_61" data-name="パス 61" d="M275,178.69c-.122.17-.253.33-.387.486a7.078,7.078,0,0,1-7.032,2.178,12.114,12.114,0,0,1-3.346-1.718,4,4,0,0,1-.973.916c-.988.661-1.909-.934-.928-1.589.043-.029.082-.064.122-.1a4.013,4.013,0,0,0-.539-.093c-1.178-.113-1.17,1.728,0,1.84a2.287,2.287,0,0,1,.431.088c1.215.357,2.444,1.627,3.6,2.065a9.576,9.576,0,0,0,4.361.593,8.711,8.711,0,0,0,5.885-3.232c.136-.165.269-.334.4-.509.694-.962-.9-1.882-1.589-.929" transform="translate(-163.39 -111.597)" fill="#fff"/>
        <path id="パス_62" data-name="パス 62" d="M266.448,172.8c-.011-.092-.024-.185-.041-.278-.214-1.164-1.988-.671-1.775.489a1.815,1.815,0,0,1-.015.692,1.972,1.972,0,0,1-.218.582,1.94,1.94,0,0,1-.475.555c-.04.033-.079.067-.122.1-.98.655-.059,2.25.928,1.589a4,4,0,0,0,.973-.915,3.861,3.861,0,0,0,.744-2.81" transform="translate(-164.861 -107.573)" fill="#fff"/>
        <path id="パス_63" data-name="パス 63" d="M310.862,213.336c.162-.04.321-.086.48-.134-.068-.319-.14-.637-.213-.955a8.436,8.436,0,0,1-.971.036.921.921,0,0,1,0-1.84c.171,0,.35.008.528,0a59.069,59.069,0,0,0-3.012-8.619c-.475-1.082-2.061-.146-1.589.929a55.877,55.877,0,0,1,4.606,19.34c.066,1.178,1.907,1.185,1.84,0a58.356,58.356,0,0,0-.835-7.082c-.115.033-.229.069-.345.1-1.152.283-1.639-1.492-.489-1.775" transform="translate(-191.535 -126.03)" fill="#fff"/>
        <path id="パス_64" data-name="パス 64" d="M315.631,224.416a.921.921,0,0,0,0,1.84,8.351,8.351,0,0,0,.971-.036,2.968,2.968,0,0,0,2.13-.983,1.243,1.243,0,0,0,.155-.254.983.983,0,0,0,.089-.588c-.156-.144-.313-.285-.461-.421a.914.914,0,0,1-.2-.266.84.84,0,0,0-.883.228,1.192,1.192,0,0,1-.623.4,2.567,2.567,0,0,1-.648.085c-.178,0-.357,0-.528,0" transform="translate(-197.008 -140.004)" fill="#fff"/>
        <path id="パス_65" data-name="パス 65" d="M320.091,220.622a1,1,0,0,0-.252.394.766.766,0,0,0,.041.6.914.914,0,0,0,.2.266c.147.136.3.276.46.421.1.093.2.188.29.286a3.474,3.474,0,0,1,.363.43c.213.307.255.054.03.388a2.776,2.776,0,0,1-.6.533,6.882,6.882,0,0,1-2.24,1.143c-.158.049-.318.095-.48.134-1.15.282-.663,2.058.489,1.775.116-.028.23-.064.345-.1a9.154,9.154,0,0,0,2.527-1.145c-.117-.253-.232-.507-.357-.757-.529-1.058,1.06-1.989,1.589-.929.075.15.142.3.214.454.01-.011.022-.021.031-.032,1.145-1.282.158-2.473-.862-3.445-.167-.159-.335-.313-.5-.461a.912.912,0,0,0-1.292.038" transform="translate(-198.575 -137.914)" fill="#fff"/>
        <path id="パス_66" data-name="パス 66" d="M326.852,230.463c.125.251.241.5.357.757a25.121,25.121,0,0,1,2.234,8.43c.1,1.171,1.941,1.182,1.841,0a27.649,27.649,0,0,0-2.629-9.662c-.072-.151-.139-.3-.214-.454-.53-1.06-2.118-.129-1.589.929" transform="translate(-204.522 -143.381)" fill="#fff"/>
        <path id="パス_67" data-name="パス 67" d="M239.732,228.287c-.081.44-.156.881-.234,1.322-.574,3.233-1.074,6.48-1.538,9.729-.166,1.159,1.608,1.659,1.775.49.527-3.693,1.1-7.383,1.772-11.051a.955.955,0,0,0,.012-.14c.052-1.055-1.58-1.466-1.787-.35" transform="translate(-148.941 -142.478)" fill="#fff"/>
        <path id="パス_68" data-name="パス 68" d="M336.661,82a7.68,7.68,0,0,1,3.83-3.989c.442-.2.771-.493,1.028-.025.365.664-.964,1.59-1.447,1.91-.738.488-.048,1.683.7,1.192a5.65,5.65,0,0,0,2.479-2.935,1.563,1.563,0,0,0-1.8-1.874c-2.772.22-5.117,2.993-6.113,5.354-.344.817.991,1.174,1.331.367" transform="translate(-209.86 -47.745)" fill="#fff"/>
        <path id="パス_69" data-name="パス 69" d="M350.06,94.356c-.631-.676-1.88-.655-2.717-.653a11.219,11.219,0,0,0-4.058.8c-.818.32-.462,1.655.367,1.331a10.124,10.124,0,0,1,3.912-.748c.579.011,1.648-.075,1.041.655a2.967,2.967,0,0,1-1.748.711c-.874.141-.5,1.472.367,1.331,1.252-.2,4.386-1.767,2.836-3.428" transform="translate(-214.584 -58.652)" fill="#fff"/>
        <path id="パス_70" data-name="パス 70" d="M14.6,241.437a.357.357,0,0,0,.148-.354l-6.219-6.542c-1.953-2.055-3.836-4.333-6-6.2a.923.923,0,0,1-.246.078,1.507,1.507,0,0,1-1.028-.092.832.832,0,0,1-.426-.912c-.68.141-1.183.961-.505,1.486,2.556,1.98,4.684,4.6,6.9,6.94l7.207,7.582a.922.922,0,0,0,1.555-.757,3.3,3.3,0,0,1-.461.36c-1,.643-1.922-.951-.929-1.589" transform="translate(0 -142.347)" fill="#fff"/>
        <path id="パス_71" data-name="パス 71" d="M10.851,228.763l-3.007-3.487a6.881,6.881,0,0,0-2.212-2.041,2.814,2.814,0,0,0-3.343,1.108,1.247,1.247,0,0,0-.1.346.832.832,0,0,0,.426.913,1.507,1.507,0,0,0,1.028.092.922.922,0,0,0,.246-.078.733.733,0,0,0,.415-.756c.819-.191,2.166,1.637,2.467,1.986l3.007,3.487,3.007,3.488c.43.5,3.248,3.42,3.324,4.536a.357.357,0,0,1-.148.355c-.994.638-.071,2.232.929,1.589a3.3,3.3,0,0,0,.461-.36c1.313-1.215.627-2.864-.49-4.2-1.966-2.355-4.01-4.651-6.013-6.975" transform="translate(-1.366 -139.621)" fill="#fff"/>
        <path id="パス_72" data-name="パス 72" d="M33.254,232.786l.163,0c-2.675-4.357-5.1-8.849-8.156-12.957-.1.067-.207.133-.307.2-.92.614-1.779-.723-1.1-1.439a1.023,1.023,0,0,0-.595,1.608c3.539,4.537,6.154,9.671,9.2,14.529a.95.95,0,0,0,1.65-.116l-.855.012a.921.921,0,0,1,0-1.84" transform="translate(-14.424 -136.825)" fill="#fff"/>
        <path id="パス_73" data-name="パス 73" d="M31.909,219.232c-.766-1.246-1.548-3.147-3-3.766-1.39-.594-2.786.111-3.941.88a1.015,1.015,0,0,0-.176.15c-.674.716.185,2.053,1.1,1.439.1-.072.2-.138.307-.2.2-.133.413-.26.628-.375q1.613-.589,2.179.7a10.163,10.163,0,0,1,1.12,1.8q1.2,1.955,2.384,3.927,2.041,3.41,4,6.871l-2.151.031-.163,0a.921.921,0,0,0,0,1.84l.855-.012,3.031-.043a.929.929,0,0,0,.795-1.384q-3.373-6-6.971-11.859" transform="translate(-15.37 -134.729)" fill="#fff"/>
        <path id="パス_74" data-name="パス 74" d="M75.293,220.264l.45-.151a4.866,4.866,0,0,0-3.323,1.266,8.779,8.779,0,0,0-2.5,6.429,9.124,9.124,0,0,0,11.083,8.608c1.161-.23.67-2-.489-1.775a7.328,7.328,0,0,1-8.425-4.757,7.525,7.525,0,0,1,.216-5.043,5.32,5.32,0,0,1,1.55-2.257,2.989,2.989,0,0,1,1.316-.558.966.966,0,0,1,.117-1.762" transform="translate(-43.767 -137.777)" fill="#fff"/>
        <path id="パス_75" data-name="パス 75" d="M87.638,223.283a10.935,10.935,0,0,1,7.746,5.989c1.144,2.6-.461,4.194-3,4.1a6.1,6.1,0,0,1-2.744-.721,2.569,2.569,0,0,1-1.112-1.143.925.925,0,0,1-.188-1.068q-.1-1.475,1.547-.01c-.423,1.107,1.354,1.586,1.775.49a2.567,2.567,0,0,0-2.626-3.458,3.211,3.211,0,0,0-2.457,4.3c1.289,3.9,8.665,4.945,10.668,1.148,2.4-4.56-3.9-9.669-7.552-10.964l-.053-.018q-1.742.585-3.483,1.173a8.013,8.013,0,0,1,1.474.179" transform="translate(-53.933 -138.914)" fill="#fff"/>
        <path id="パス_76" data-name="パス 76" d="M120.679,195.056c-2.072-1.785-3.844-2.407-6.523-1.65-3.195.9-6.358,1.942-9.524,2.938Q94.112,199.65,83.67,203.2l-.45.151a.966.966,0,0,0-.117,1.762.815.815,0,0,0,.607.013l.216-.073q1.741-.591,3.483-1.173,8.321-2.792,16.689-5.438c3.408-1.076,6.814-2.185,10.249-3.172a4.5,4.5,0,0,1,3.481-.065,9.689,9.689,0,0,1,2.209,1.736,22.44,22.44,0,0,1,3.214,3.5,11.6,11.6,0,0,1,1.989,4.177c.575,2.621-1.749,3.12-3.732,3.78-3.058,1.017-6.167,1.867-9.269,2.737-6.141,1.724-12.267,3.581-17.811,6.809a.921.921,0,0,0,.929,1.589c5.313-3.095,11.175-4.881,17.061-6.537,2.895-.814,5.8-1.6,8.663-2.524,1.874-.6,4.872-1.116,5.843-3.08s-.2-4.668-1.157-6.413a22.143,22.143,0,0,0-5.087-5.923" transform="translate(-51.694 -120.861)" fill="#fff"/>
        <path id="パス_77" data-name="パス 77" d="M68.159,119.294c-1.444-.539-3.121-.349-4.64-.453a55.01,55.01,0,0,1-5.563-.667c-1.665-.287-3.376-.934-5.042-1.1a3.637,3.637,0,0,0-.458-.205l.251-1.025q.248-1.013.5-2.027c-.336-.077-.67-.159-1-.248a.825.825,0,0,1-.647-.748c-.286,1.164-1.222,3.181-1.014,4.522.005-.095.012-.189.017-.284.062-1.18,1.9-1.184,1.84,0-.033.619-.075,1.236-.123,1.852.754.218,1.592.3,2.157.433a59.48,59.48,0,0,0,6.006,1.043q1.708.21,3.427.319a13.718,13.718,0,0,1,3.825.372q.038-.3.075-.6a.993.993,0,0,1,.022-.1.959.959,0,0,1,.1-.366,3.943,3.943,0,0,0,.271-.718" transform="translate(-31.615 -70.617)" fill="#fff"/>
        <path id="パス_78" data-name="パス 78" d="M71.351,112.347c-5.62-.97-11.386-.867-16.922-2.33a.92.92,0,0,0-1.136,1.026.825.825,0,0,0,.647.749q.5.132,1,.248c5,1.156,10.166,1.175,15.23,1.972a13.7,13.7,0,0,1-.274,3.508,3.941,3.941,0,0,1-.271.718.973.973,0,0,0-.1.367c.237-1.059,1.96-1.039,1.818.1l-.033.263c.774-1.714.645-3.9.716-5.73a.925.925,0,0,0-.676-.887" transform="translate(-33.356 -68.842)" fill="#fff"/>
        <path id="パス_79" data-name="パス 79" d="M91.856,148.672a37.178,37.178,0,0,0,.666-5.3q.706-5.641,1.414-11.282l.033-.263c.143-1.138-1.581-1.158-1.818-.1a.994.994,0,0,0-.022.1l-.075.6q-.482,3.85-.965,7.7-.249,1.984-.5,3.968a26.677,26.677,0,0,1-.359,3.739,1.067,1.067,0,0,0-.688.536.918.918,0,0,0-.014.842l.109.232a.908.908,0,0,0,.795.456,1.3,1.3,0,0,0,1.381-1.1c.014-.045.029-.086.042-.132" transform="translate(-55.98 -81.971)" fill="#fff"/>
        <path id="パス_80" data-name="パス 80" d="M46.556,122.665c.062-1.184-1.778-1.18-1.84,0-.005.1-.012.189-.018.284a61.128,61.128,0,0,1-3.183,16.606c-.091.264-.182.529-.278.793-.4,1.116,1.374,1.6,1.775.489.117-.324.23-.648.341-.973a62.215,62.215,0,0,0,3.08-15.348c.048-.615.09-1.233.123-1.852" transform="translate(-25.775 -76.226)" fill="#fff"/>
      </g>
    </g>
  </g>
</svg>
