<svg width="39" height="44" viewBox="0 0 39 44" fill="none" xmlns="http://www.w3.org/2000/svg">
<g clip-path="url(#clip0)">
<path d="M18.9646 8.32801C19.0494 5.60126 18.9317 2.87198 18.6127 0.16258L17.58 0.586913L20.4231 2.10499C20.9855 2.4048 21.5844 2.68478 22.1293 3.01552C22.7299 3.38116 22.7116 3.24078 22.2699 3.57549C21.3127 4.30201 19.496 4.50822 18.3339 4.88497C17.665 5.1015 17.7929 5.65273 18.48 5.42986C19.4396 5.11974 20.4032 4.8239 21.358 4.50188C21.9498 4.3028 23.2812 4.06803 23.7085 3.53979C24.0263 3.14322 23.9389 3.12181 23.6188 2.77837C22.9184 2.27309 22.1529 1.86463 21.3429 1.56407L18.4967 0.0467806C18.2393 -0.0904335 17.4148 0.0848516 17.464 0.471114C17.7799 3.12899 17.8983 5.80656 17.8183 8.48188C17.8048 8.93239 18.9567 8.69286 18.9678 8.3296" fill="black"/>
<path d="M14.5098 26.7179C14.2538 26.4657 14.051 26.1649 13.9132 25.8332C13.7754 25.5015 13.7055 25.1456 13.7075 24.7866C13.717 24.1108 14.0983 22.7141 14.9356 23.5873C15.173 23.8626 15.3535 24.182 15.4668 24.5272C15.5801 24.8724 15.6239 25.2366 15.5957 25.5987C15.5892 25.8991 15.5046 26.1927 15.3503 26.4506C15.2978 26.5148 14.6258 26.9534 14.5559 26.8051C14.3382 26.3475 13.2055 26.6933 13.4041 27.1137C13.8521 28.0575 15.5727 27.4373 16.151 26.9043C17.1685 25.9668 16.7865 24.2869 16.1256 23.2883C15.9699 23.0342 15.7527 22.8233 15.494 22.675C15.2353 22.5267 14.9434 22.4457 14.6451 22.4395C14.3469 22.4334 14.0519 22.5022 13.7872 22.6397C13.5226 22.7772 13.2969 22.979 13.1308 23.2264C12.7058 23.8199 12.5046 24.5443 12.5628 25.2716C12.6209 25.9989 12.9347 26.6822 13.4486 27.2009C13.775 27.538 14.8705 27.0907 14.5098 26.7179Z" fill="black"/>
<path d="M14.3573 23.1004C16.715 23.0869 19.0726 22.9695 21.4271 22.8204C22.5956 22.7466 23.7538 22.3992 24.3663 23.5937C24.8492 24.5978 25.0417 25.7167 24.9223 26.8242L25.58 26.4466C22.208 26.7115 18.8216 26.6449 15.4495 26.9098C14.8991 26.9535 14.4804 27.5729 15.2827 27.5102C18.6548 27.2453 22.0412 27.312 25.4132 27.047C25.6063 27.032 26.0273 26.9003 26.071 26.6703C26.3434 25.2561 25.8938 22.0946 24.1256 22.0415C21.053 21.9495 17.9065 22.4635 14.8188 22.4809C14.4073 22.4809 13.5892 23.1051 14.3621 23.1004" fill="black"/>
<path d="M16.1089 22.8275L20.0696 15.3141L18.9273 15.5766L22.7577 22.5483C22.8983 22.8037 23.9842 22.3746 23.9095 22.2398L20.0791 15.2681C19.9504 15.0301 19.0361 15.3418 18.9368 15.5306L14.9761 23.0441C14.9173 23.1559 15.9611 23.1083 16.1089 22.8275Z" fill="black"/>
<path d="M24.3289 26.9479L30.3661 41.9328C30.4297 42.0506 30.5345 42.1408 30.6606 42.1862C30.7866 42.2315 30.925 42.2289 31.0492 42.1787C33.7199 41.2753 36.5605 40.9215 38.799 39.0854C38.886 39.0337 38.9495 38.9504 38.9763 38.853C39.0031 38.7555 38.9911 38.6515 38.9428 38.5627C32.1907 28.2407 27.3396 16.6093 18.5611 7.72523C18.49 7.66317 18.4072 7.61593 18.3176 7.58627C18.2279 7.55661 18.1333 7.54514 18.0391 7.55253C17.945 7.55992 17.8533 7.58602 17.7694 7.6293C17.6855 7.67258 17.6111 7.73216 17.5506 7.80455C10.6548 17.9687 5.93071 29.4051 0.0357464 40.1411C0.0157991 40.1854 0.00574908 40.2335 0.00629433 40.2821C0.00683957 40.3306 0.017967 40.3785 0.0389039 40.4224C0.0598408 40.4662 0.0900853 40.505 0.127537 40.536C0.16499 40.567 0.208752 40.5895 0.255785 40.6019C2.78304 41.4331 5.37718 42.0458 8.00955 42.4333C8.15574 42.4561 8.30545 42.4346 8.43919 42.3713C8.57293 42.3081 8.68452 42.2062 8.75943 42.0787C10.4856 37.0668 13.1284 32.4404 14.6258 27.3429C14.8141 26.702 13.6726 26.7084 13.5224 27.2057C12.0251 32.3024 9.38221 36.9296 7.65606 41.9415L8.40594 41.587C7.41696 41.4283 6.43274 41.2324 5.45171 41.0318C4.37138 40.8089 3.30057 40.5654 2.24487 40.2466C1.88574 40.1994 1.53777 40.0893 1.21696 39.9214C0.837258 39.5748 1.28369 40.08 1.41714 39.7731C2.93676 36.2372 5.04182 32.841 6.77353 29.3963C10.403 22.1787 13.9728 14.8516 18.5198 8.15115L17.5093 8.23046C26.2878 17.1145 31.139 28.7507 37.8911 39.0687L38.0349 38.5469C35.979 40.2363 33.2893 40.5495 30.8371 41.3792L31.5203 41.6251L25.4831 26.6402C25.2734 26.1191 24.128 26.4443 24.3313 26.9487" fill="black"/>
<path d="M7.83559 42.2541C15.2502 43.1265 23.0611 43.5524 30.4169 42.0026C30.8745 41.9059 31.4321 41.3919 30.6266 41.5616C23.4432 43.0757 15.8221 42.6252 8.5799 41.7734C8.32094 41.7425 7.26047 42.1866 7.83559 42.2549" fill="black"/>
<path d="M4.07667 34.0751C5.00581 34.4328 5.95736 34.7296 6.92525 34.9634C8.06065 35.1022 9.18055 35.3468 10.2703 35.6939C10.7874 35.9319 11.5993 35.1824 10.9241 34.8762C10.0326 34.5631 9.10704 34.3567 8.16683 34.2615C6.99451 34.0267 5.84474 33.691 4.73043 33.2582C4.20376 33.0575 3.38557 33.8134 4.07667 34.0759" fill="black"/>
<path d="M4.90598 31.3832C5.78962 31.7485 6.70848 32.0222 7.64812 32.2001C8.13744 32.3001 8.62915 32.3834 9.11928 32.4801C9.57842 32.5705 10.8017 33.1051 11.1759 32.8481C10.6635 33.1995 11.8161 33.1749 12.087 32.9893C12.8329 32.4777 11.1155 32.1811 10.8828 32.1256C9.16623 31.8464 7.47662 31.4219 5.8322 30.8566C5.52081 30.7241 4.4667 31.1913 4.90598 31.3792" fill="black"/>
<path d="M28.3079 32.7522C29.6003 31.656 31.5362 31.0199 33.0534 30.2759C33.7318 29.9428 32.6562 30.0182 32.3957 30.1475C30.7275 30.966 28.6963 31.641 27.2689 32.8529C27.0441 33.0432 28.0982 32.9322 28.3079 32.7529" fill="black"/>
<path d="M29.1745 35.0221C30.7426 33.8816 32.4338 32.9201 34.2163 32.1557C34.9424 31.8154 34.2735 31.4934 33.7731 31.7274C31.8235 32.5645 29.9741 33.6173 28.2594 34.8659C27.7558 35.2577 28.9021 35.2339 29.1745 35.0245" fill="black"/>
</g>
<defs>
<clipPath id="clip0">
<rect width="39" height="43.0345" fill="white"/>
</clipPath>
</defs>
</svg>
