<svg id="features-ico-03" xmlns="http://www.w3.org/2000/svg" xmlns:xlink="http://www.w3.org/1999/xlink" width="116.536" height="104.497" viewBox="0 0 116.536 104.497">
  <defs>
    <clipPath id="clip-path">
      <rect id="長方形_57" data-name="長方形 57" width="116.536" height="104.497" fill="#fff"/>
    </clipPath>
  </defs>
  <g id="グループ_19" data-name="グループ 19" clip-path="url(#clip-path)">
    <path id="パス_81" data-name="パス 81" d="M154.275,159.361a.527.527,0,0,0,.055-.024.91.91,0,0,1,.077-.072c-.01-.013-.065.007-.132.1" transform="translate(-86.822 -89.629)" fill="#fff"/>
    <path id="パス_82" data-name="パス 82" d="M45.162,61.743c.7-2.883-1.069-6.644-4.112-7.274a4.956,4.956,0,0,0-5.8,3.506,5.069,5.069,0,0,0,3.726,5.846,1.039,1.039,0,0,0,.208.046c.032.006.063.016.1.021a1.008,1.008,0,0,0,.247.009c2.087.158,5.036.338,5.638-2.155m-8.089-3.468a3.141,3.141,0,0,1,3.846-1.936,3.373,3.373,0,0,1,1.938,1.82c.408.8,1.123,2.865.279,3.628-.719.65-2.532.38-3.593.268a3.2,3.2,0,0,1-2.471-3.78" transform="translate(-19.777 -30.598)" fill="#fff"/>
    <path id="パス_83" data-name="パス 83" d="M85.248,43.535c-2.729,1.222-5.606,2.087-8.336,3.309-1.086.486-.145,2.082.934,1.6,2.729-1.222,5.606-2.087,8.336-3.309,1.086-.486.145-2.082-.934-1.6" transform="translate(-43.013 -24.45)" fill="#fff"/>
    <path id="パス_84" data-name="パス 84" d="M81.8,40.867c.01-1.606-.967-3.432-1.565-4.873-.578-1.394-1.221-2.758-1.826-4.139-.806-1.838-1.845-1.8-3.7-1.17-2.647.892-5.213,2.008-7.839,2.957-1.468.531-4.4.905-4.639,2.863-.143,1.16.589,2.574,1.163,3.691-.925,1.409-2.336,2.389-3.413,3.686a.935.935,0,0,0,.9,1.547l4.854-.666a14.719,14.719,0,0,0,1.571,2.591c1.027,1.188,3.293.146,4.452-.375,2.057-.925,4.025-1.975,6.119-2.849,1.464-.611,3.909-1.327,3.921-3.263m-3.3.984c-1.594.765-3.28,1.321-4.883,2.068-1.62.755-3.149,1.937-4.97,2.07L67.037,43.3a.849.849,0,0,0-.85-.433,1.024,1.024,0,0,0-.2.008l-2.83.388a11.03,11.03,0,0,0,2.093-2.552A.877.877,0,0,0,65.334,40a1.022,1.022,0,0,0-.079-.226c-.317-.645-1.409-2.341-1.17-3.029.191-.548,1.973-.864,2.48-1.038,1.021-.352,2.03-.738,3.037-1.127,1.914-.739,4.073-1.965,6.107-2.281,1.089-.169,1.228.753,1.636,1.655.648,1.435,1.278,2.88,1.83,4.354a9.023,9.023,0,0,1,.6,1.787c.144,1.054-.36,1.314-1.275,1.753" transform="translate(-33.613 -17.05)" fill="#fff"/>
    <path id="パス_85" data-name="パス 85" d="M110.422,78.269c-2.375-.442-4.586,1.712-4.98,3.926a4.969,4.969,0,0,0,3.35,5.454.747.747,0,0,0,.924-.254,3.42,3.42,0,0,0,4.279-2.821c.4-2.242-1.122-5.85-3.573-6.306m-.183,7.38a.972.972,0,0,0-1.053.171,3.012,3.012,0,0,1-.243-5.51c1.649-.745,2.582.9,3.027,2.245.338,1.021.159,3.914-1.732,3.1" transform="translate(-59.298 -44.015)" fill="#fff"/>
    <path id="パス_86" data-name="パス 86" d="M118.775,89.723l-2.993-3.441c-.982-1.129-2.431-2.316-2.684-3.8-.194-1.138.117-1.159.647-2.054a6.343,6.343,0,0,0,.411-.842,7.553,7.553,0,0,0,.486-2.037c.4-3.6-.958-7.344-2.4-10.569-1.437-3.2-3.225-6.423-6.129-8.509a21.252,21.252,0,0,0-11.635-3.739,6.593,6.593,0,0,0-4.914-1.409,4.7,4.7,0,0,0-3.966,3.471,4.947,4.947,0,0,0-3.924.38,4.714,4.714,0,0,0-1.845,2.53c-.159-.046-.317-.094-.477-.136Q78.73,59.28,78.106,59a9.306,9.306,0,0,0-.354-1.045c-.813-2.025-1.679-4.029-2.537-6.035-2.836-6.624-5.726-13.224-8.619-19.823q-4.408-10.058-8.844-20.1C56.228,8.539,54.97,3.984,52.176,1.27c-2.488-2.418-6.46-.759-9.375-.112C38.5,2.112,34.208,3.142,29.931,4.22c-8.33,2.1-16.61,4.388-24.875,6.728a.926.926,0,0,0,.492,1.785c13.6-3.85,27.25-7.611,41.087-10.515,1.107-.232,2.563-.69,3.633-.117A5.721,5.721,0,0,1,51.926,3.88a10.76,10.76,0,0,1,.728,1.127c.17.321.3.672.444,1q1.116,2.523,2.23,5.047Q63.57,29.723,71.712,48.431c1.156,2.671,2.31,5.342,3.434,8.026q.319.763.633,1.529a68,68,0,0,0-7.091-2.549L54.5,19.474,50.979,10.54c-.621-1.574-1.137-4.417-3.3-4.511a11.155,11.155,0,0,0-3.324.836c-1.55.451-3.109.87-4.673,1.268-2.9.74-5.822,1.408-8.741,2.077A165.184,165.184,0,0,0,10.981,15.7a.917.917,0,0,0-.564.554.906.906,0,0,0-.555,1.331,1.661,1.661,0,0,1,.177.421c.172.447.323.9.477,1.358.46,1.355.9,2.718,1.331,4.081C13.263,27.881,14.634,32.335,16,36.79q5.291,17.262,10.432,34.57,2.318,7.778,4.607,15.565a.932.932,0,0,0,1.139.646c11.562-4.75,23.14-9.479,34.615-14.436,1.112-.48,2.227-.955,3.324-1.468.518-.242,1.247-.468,1.43-1.079a.819.819,0,0,0-.191-.846,38.926,38.926,0,0,0,4.257,2.107.874.874,0,0,0,.18.252,14.4,14.4,0,0,0,1.766,10.16,12.886,12.886,0,0,0,11.213,7.356c1.433.017,2.944-.638,4.321.008,1.6.749,3.145,2.4,4.552,3.474l8.535,6.512c.947.723,1.87-.885.934-1.6l-7.966-6.078-3.983-3.04c-1.024-.781-1.912-1.674-3.282-1.557a22.456,22.456,0,0,1-3.611.409A10.41,10.41,0,0,1,84.4,86.686a11.3,11.3,0,0,1-5.239-5.362,12.429,12.429,0,0,1-1.675-8.135c2.5,1.518,5.155,3.022,6.722,5.506.634,1.005,2.237.077,1.6-.934-1.877-2.977-5.033-4.68-7.951-6.512a.938.938,0,0,0-.6-.717A34.193,34.193,0,0,1,62.271,59.485c-.6-.806-1.551-2.1-.464-2.927a3.179,3.179,0,0,1,1.95-.348,18.759,18.759,0,0,1,4.471,1.057,75.332,75.332,0,0,1,10.34,3.971.956.956,0,0,0,.24.1c4.513,1.205,8.791,3.6,11.342,7.627.637,1,2.239.076,1.6-.934a19.745,19.745,0,0,0-10.123-7.74c-.042-1.307,1.561-1.868,2.6-1.815a10.324,10.324,0,0,1,4.78,1.7c2.586,1.616,4.551,4.049,6.47,6.372.759.92,2.062-.4,1.309-1.309-2.617-3.169-5.474-6.478-9.412-7.925.537-2.25,3.168-2.613,4.99-1.724a15.349,15.349,0,0,1,3.46,2.941c1.863,1.716,3.543,3.374,4.42,5.835.4,1.114,2.187.634,1.785-.492a18.558,18.558,0,0,0-5.167-7.079,17.6,17.6,0,0,1,9.3,4.081c2.64,2.407,4.34,6.272,5.488,9.582a19.35,19.35,0,0,1,1.195,5.462,7.047,7.047,0,0,1-1.343,4.52c-.992,1.574-.705,2.869.444,4.243,1.8,2.151,3.684,4.236,5.525,6.352.783.9,2.088-.414,1.309-1.309m-68.768-20.7L48.4,66.339a.849.849,0,0,0-.85-.433,1.024,1.024,0,0,0-.2.007l-2.83.388a11.04,11.04,0,0,0,2.093-2.552.876.876,0,0,0,.078-.708,1.026,1.026,0,0,0-.078-.226c-.318-.644-1.409-2.341-1.17-3.029.191-.548,1.973-.864,2.481-1.039,1.021-.352,2.03-.737,3.037-1.126,1.913-.739,4.073-1.965,6.107-2.281,1.09-.169,1.228.753,1.636,1.655.648,1.435,1.279,2.879,1.83,4.354a9.032,9.032,0,0,1,.6,1.787c.144,1.054-.36,1.314-1.275,1.753-1.595.765-3.28,1.321-4.883,2.068-1.62.755-3.149,1.937-4.97,2.07m10.082-13.41c-.108-.241-.216-.482-.322-.724-.806-1.837-1.845-1.795-3.7-1.17-2.647.892-5.213,2.008-7.839,2.957-1.467.53-4.4.905-4.64,2.863-.143,1.16.589,2.574,1.163,3.691-.925,1.409-2.336,2.389-3.413,3.686a.935.935,0,0,0,.9,1.547L47.1,67.8a14.788,14.788,0,0,0,1.571,2.591c1.027,1.188,3.293.146,4.452-.375,2.057-.925,4.025-1.975,6.119-2.849,1.464-.611,3.909-1.327,3.921-3.263a4.6,4.6,0,0,0-.043-.629,36.093,36.093,0,0,0,3.1,2.9A36.7,36.7,0,0,0,70.944,69.5a.959.959,0,0,0-.88.139c.008.01-.013.039-.077.072a.919.919,0,0,0-.225.387,1.129,1.129,0,0,1,.17-.363.867.867,0,0,1-.118.035,5.192,5.192,0,0,0-.882.417c-.944.433-1.9.845-2.851,1.257C63,72.772,59.908,74.072,56.813,75.37Q46.62,79.641,36.4,83.845l-3.867,1.592C26.516,64.906,20.425,44.383,13.962,23.988a51.161,51.161,0,0,0-2.135-6.628A174,174,0,0,1,32.1,11.841c3.369-.772,6.737-1.55,10.075-2.447,1.489-.4,4.784-2.075,6.065-.767a10.093,10.093,0,0,1,1.084,2.749l.949,2.405,16.2,41.057c-.245-.061-.489-.127-.735-.184-1.773-.41-4.441-.477-5.65.964" transform="translate(-2.478 0)" fill="#fff"/>
    <path id="パス_87" data-name="パス 87" d="M121.136,192.234c3.761.2,4.312-4.207,3.2-6.977-1.254-3.126-4.611-4.806-7.551-2.575-2.239,1.7-2.965,5.976-.6,7.888.961.776,3.633,2.486,4.949,1.664m-1.191-1.262c-.01.021-.024.04-.033.063.014-.035.025-.057.038-.085,0,.007,0,.014-.005.021m-2.39-6.511a2.893,2.893,0,0,1,4.72.729c.964,1.682,1.547,5.526-1.47,5.165a.727.727,0,0,0-.723.291,1.1,1.1,0,0,1-.159-.154c-.125-.143-.564-.245-.747-.334a9.559,9.559,0,0,1-1.342-.728,3.368,3.368,0,0,1-.279-4.969" transform="translate(-64.564 -102.235)" fill="#fff"/>
    <path id="パス_88" data-name="パス 88" d="M71.569,102.895a215.8,215.8,0,0,1-21.891,10.253q-5.43,2.175-10.972,4.051-2.77.937-5.565,1.8c-.877.27-1.754.538-2.635.794-1.271.37-2,.411-2.669-.773C21.672,95.4,14.362,72.06,7.166,48.739q-2.652-8.6-5.334-17.181c-.354-1.134-2.142-.65-1.785.492,7.289,23.345,14.51,46.72,21.247,70.231,1.652,5.763,3.273,11.536,4.786,17.338a.944.944,0,0,0,.134.293c1.941,3.559,5.664,1.432,8.734.463q6.562-2.07,12.982-4.558A219.621,219.621,0,0,0,72.5,104.493c1.05-.564.116-2.163-.934-1.6" transform="translate(0 -17.397)" fill="#fff"/>
    <path id="パス_89" data-name="パス 89" d="M185.148,95.588a9.208,9.208,0,0,1,.77-3.867c.48-1.079-1.115-2.022-1.6-.934a11.407,11.407,0,0,0-1.023,4.8.926.926,0,0,0,1.851,0" transform="translate(-103.154 -50.821)" fill="#fff"/>
    <path id="パス_90" data-name="パス 90" d="M192.936,101.719l3.037-3.9c.723-.93-.578-2.249-1.309-1.309l-3.037,3.9c-.723.93.578,2.249,1.309,1.309" transform="translate(-107.724 -54.129)" fill="#fff"/>
    <path id="パス_91" data-name="パス 91" d="M70.277,90.288l-4.854.665a14.773,14.773,0,0,0-1.571-2.591c-1.027-1.188-3.293-.146-4.452.375-2.057.925-4.025,1.976-6.119,2.849-1.465.61-3.909,1.327-3.921,3.263-.01,1.605.968,3.431,1.565,4.873.578,1.394,1.221,2.758,1.826,4.139.805,1.837,1.845,1.794,3.7,1.17,2.647-.892,5.213-2.008,7.839-2.957,1.467-.53,4.4-.9,4.639-2.863.143-1.16-.589-2.574-1.163-3.691.925-1.409,2.336-2.389,3.413-3.686a.935.935,0,0,0-.9-1.547M65.9,95.005a.877.877,0,0,0-.079.709,1.024,1.024,0,0,0,.079.226c.318.644,1.409,2.341,1.17,3.028-.191.548-1.973.864-2.481,1.039-1.021.352-2.03.738-3.037,1.127-1.914.739-4.073,1.965-6.107,2.28-1.089.169-1.228-.753-1.636-1.655-.648-1.434-1.278-2.879-1.83-4.354a8.966,8.966,0,0,1-.6-1.787c-.144-1.053.36-1.314,1.275-1.753,1.594-.764,3.28-1.322,4.883-2.068,1.62-.755,3.149-1.937,4.97-2.07l1.612,2.689a.848.848,0,0,0,.85.432,1.022,1.022,0,0,0,.2-.007L68,92.453A11.029,11.029,0,0,0,65.9,95.005" transform="translate(-27.779 -49.421)" fill="#fff"/>
    <path id="パス_92" data-name="パス 92" d="M68.552,103.384c-2.729,1.222-5.606,2.086-8.336,3.308-1.086.487-.145,2.082.934,1.6,2.729-1.222,5.606-2.087,8.336-3.309,1.086-.486.145-2.081-.934-1.6" transform="translate(-33.617 -58.131)" fill="#fff"/>
    <path id="パス_93" data-name="パス 93" d="M69.625,146.161a4.956,4.956,0,0,0-5.8,3.506,5.067,5.067,0,0,0,3.726,5.845,1,1,0,0,0,.208.047c.032.006.063.016.095.021a1.01,1.01,0,0,0,.247.009c2.087.158,5.035.338,5.638-2.156.7-2.882-1.069-6.644-4.112-7.273m2.087,7.317c-.719.65-2.532.38-3.593.268a3.2,3.2,0,0,1-2.471-3.779,3.141,3.141,0,0,1,3.847-1.936,3.373,3.373,0,0,1,1.938,1.82c.407.8,1.123,2.865.279,3.628" transform="translate(-35.859 -82.2)" fill="#fff"/>
    <path id="パス_94" data-name="パス 94" d="M113.823,135.226c-2.729,1.222-5.606,2.086-8.336,3.309-1.086.486-.145,2.082.934,1.6,2.729-1.222,5.606-2.087,8.336-3.309,1.086-.486.145-2.082-.934-1.6" transform="translate(-59.094 -76.051)" fill="#fff"/>
  </g>
</svg>
